<svg xmlns="http://www.w3.org/2000/svg" width="400" height="400" viewBox="0 0 400 400">
  <defs>
    <pattern id="arabesque1" x="0" y="0" width="80" height="80" patternUnits="userSpaceOnUse">
      <path d="M40,0 C60,20 80,20 80,40 C80,60 60,80 40,80 C20,80 0,60 0,40 C0,20 20,0 40,0 Z" fill="none" stroke="white" stroke-width="0.5" />
      <path d="M40,10 C55,25 70,25 70,40 C70,55 55,70 40,70 C25,70 10,55 10,40 C10,25 25,10 40,10 Z" fill="none" stroke="white" stroke-width="0.5" />
      <path d="M40,20 C50,30 60,30 60,40 C60,50 50,60 40,60 C30,60 20,50 20,40 C20,30 30,20 40,20 Z" fill="none" stroke="white" stroke-width="0.5" />
    </pattern>
  </defs>
  <rect x="0" y="0" width="400" height="400" fill="url(#arabesque1)" />
</svg>