<svg xmlns="http://www.w3.org/2000/svg" width="400" height="400" viewBox="0 0 400 400">
  <defs>
    <pattern id="arabesque2" x="0" y="0" width="100" height="100" patternUnits="userSpaceOnUse">
      <path d="M0,50 C0,30 20,0 50,0 C80,0 100,30 100,50 C100,70 80,100 50,100 C20,100 0,70 0,50 Z" fill="none" stroke="white" stroke-width="0.5" />
      <path d="M25,50 C25,40 35,25 50,25 C65,25 75,40 75,50 C75,60 65,75 50,75 C35,75 25,60 25,50 Z" fill="none" stroke="white" stroke-width="0.5" />
      <path d="M40,0 L40,100 M0,60 L100,60 M0,40 L100,40 M60,0 L60,100" stroke="white" stroke-width="0.25" />
    </pattern>
  </defs>
  <rect x="0" y="0" width="400" height="400" fill="url(#arabesque2)" />
</svg>