<svg xmlns="http://www.w3.org/2000/svg" width="400" height="400" viewBox="0 0 400 400">
  <defs>
    <pattern id="pattern4" x="0" y="0" width="80" height="80" patternUnits="userSpaceOnUse">
      <path d="M0,0 L80,0 L80,80 L0,80 Z" fill="none" stroke="white" stroke-width="0.3" />
      <path d="M20,0 L20,80 M40,0 L40,80 M60,0 L60,80" stroke="white" stroke-width="0.3" />
      <path d="M0,20 L80,20 M0,40 L80,40 M0,60 L80,60" stroke="white" stroke-width="0.3" />
      <circle cx="20" cy="20" r="5" fill="none" stroke="white" stroke-width="0.3" />
      <circle cx="20" cy="40" r="5" fill="none" stroke="white" stroke-width="0.3" />
      <circle cx="20" cy="60" r="5" fill="none" stroke="white" stroke-width="0.3" />
      <circle cx="40" cy="20" r="5" fill="none" stroke="white" stroke-width="0.3" />
      <circle cx="40" cy="40" r="5" fill="none" stroke="white" stroke-width="0.3" />
      <circle cx="40" cy="60" r="5" fill="none" stroke="white" stroke-width="0.3" />
      <circle cx="60" cy="20" r="5" fill="none" stroke="white" stroke-width="0.3" />
      <circle cx="60" cy="40" r="5" fill="none" stroke="white" stroke-width="0.3" />
      <circle cx="60" cy="60" r="5" fill="none" stroke="white" stroke-width="0.3" />
    </pattern>
  </defs>
  <rect x="0" y="0" width="400" height="400" fill="url(#pattern4)" />
</svg>