<?xml version="1.0" encoding="UTF-8"?>
<svg width="120" height="120" viewBox="0 0 120 120" xmlns="http://www.w3.org/2000/svg">
  <defs>
    <pattern id="geometric-pattern" width="120" height="120" patternUnits="userSpaceOnUse">
      <path fill="none" stroke="white" stroke-width="1" opacity="0.2" d="M0,0 L120,120 M120,0 L0,120 M30,0 L30,120 M60,0 L60,120 M90,0 L90,120 M0,30 L120,30 M0,60 L120,60 M0,90 L120,90"></path>
      <path fill="none" stroke="white" stroke-width="1" opacity="0.2" d="M60,60 L30,30 L60,0 L90,30 L60,60 L30,90 L0,60 L30,30 M60,60 L90,30 L120,60 L90,90 L60,60 L90,90 L60,120 L30,90"></path>
    </pattern>
  </defs>
  <rect width="100%" height="100%" fill="url(#geometric-pattern)"></rect>
</svg>