<svg width="80" height="80" viewBox="0 0 80 80" xmlns="http://www.w3.org/2000/svg">
  <defs>
    <pattern id="mosaic-pattern" patternUnits="userSpaceOnUse" width="80" height="80">
      <path fill="none" stroke="white" stroke-width="1" opacity="0.2" d="M20,0 L20,20 L0,20 M20,0 L40,0 L40,20 M40,0 L60,0 L60,20 M60,0 L80,0 L80,20
            M0,20 L0,40 L20,40 M20,20 L40,20 L40,40 M40,20 L60,20 L60,40 M60,20 L80,20 L80,40
            M0,40 L0,60 L20,60 M20,40 L40,40 L40,60 M40,40 L60,40 L60,60 M60,40 L80,40 L80,60
            M0,60 L0,80 L20,80 M20,60 L40,60 L40,80 M40,60 L60,60 L60,80 M60,60 L80,60 L80,80" />
      <path fill="none" stroke="white" stroke-width="0.5" opacity="0.3" d="M10,10 L30,10 L30,30 L10,30 Z M50,10 L70,10 L70,30 L50,30 Z
            M30,30 L50,30 L50,50 L30,50 Z M10,50 L30,50 L30,70 L10,70 Z M50,50 L70,50 L70,70 L50,70 Z" />
    </pattern>
  </defs>
  <rect width="100%" height="100%" fill="url(#mosaic-pattern)" />
</svg>