<svg width="150" height="150" viewBox="0 0 150 150" xmlns="http://www.w3.org/2000/svg">
  <defs>
    <pattern id="arabesque" patternUnits="userSpaceOnUse" width="150" height="150">
      <path fill="none" stroke="currentColor" stroke-width="1" d="M37.5,0 C37.5,20.7 20.7,37.5 0,37.5 C20.7,37.5 37.5,54.3 37.5,75 C37.5,54.3 54.3,37.5 75,37.5 C54.3,37.5 37.5,20.7 37.5,0 Z M112.5,0 C112.5,20.7 95.7,37.5 75,37.5 C95.7,37.5 112.5,54.3 112.5,75 C112.5,54.3 129.3,37.5 150,37.5 C129.3,37.5 112.5,20.7 112.5,0 Z M37.5,75 C37.5,95.7 20.7,112.5 0,112.5 C20.7,112.5 37.5,129.3 37.5,150 C37.5,129.3 54.3,112.5 75,112.5 C54.3,112.5 37.5,95.7 37.5,75 Z M112.5,75 C112.5,95.7 95.7,112.5 75,112.5 C95.7,112.5 112.5,129.3 112.5,150 C112.5,129.3 129.3,112.5 150,112.5 C129.3,112.5 112.5,95.7 112.5,75 Z" />
    </pattern>
  </defs>
  <rect width="100%" height="100%" fill="url(#arabesque)" />
</svg>